<svg xmlns="http://www.w3.org/2000/svg" viewBox="0 0 30 30">
  <defs>
    <style>
      .cls-1, .cls-2 {
        fill: none;
      }

      .cls-2, .cls-3 {
        stroke: #cf3339;
      }

      .cls-2, .cls-3, .cls-4, .cls-5 {
        stroke-linecap: round;
        stroke-linejoin: round;
        stroke-miterlimit: 10;
      }

      .cls-3 {
        fill: #f08b8f;
      }

      .cls-4 {
        fill: #fff;
      }

      .cls-4, .cls-5 {
        stroke: #f08b8f;
      }

      .cls-5 {
        fill: #f4f4f4;
      }
    </style>
  </defs>
  <g id="Group_3477" data-name="Group 3477" transform="translate(-1025 -474)">
    <g id="Symbol_274_21" data-name="Symbol 274 – 21" transform="translate(341 -881)">
      <rect id="Rectangle_2508" data-name="Rectangle 2508" class="cls-1" width="30" height="30" transform="translate(684 1355)"/>
    </g>
    <g id="Group_3476" data-name="Group 3476" transform="translate(1029 477)">
      <path id="Path_2111" data-name="Path 2111" class="cls-2" d="M6.3,1H16V21.7H1V6.5Z"/>
      <path id="Path_2112" data-name="Path 2112" class="cls-3" d="M6.3,1V6.5H1Z"/>
      <line id="Line_1610" data-name="Line 1610" class="cls-4" x2="7.1" transform="translate(3.7 11.3)"/>
      <line id="Line_1611" data-name="Line 1611" class="cls-4" x2="7.1" transform="translate(3.7 14.8)"/>
      <line id="Line_1612" data-name="Line 1612" class="cls-4" x2="7.1" transform="translate(3.7 18.1)"/>
      <g id="Group_3475" data-name="Group 3475">
        <rect id="Rectangle_2744" data-name="Rectangle 2744" class="cls-5" width="3" height="8.7" transform="translate(17.66 7.915) rotate(28.536)"/>
        <path id="Path_2113" data-name="Path 2113" class="cls-5" d="M20.3,9.3,17.7,7.9l.8-1.5a1.286,1.286,0,0,1,1.8-.5l.3.2a1.286,1.286,0,0,1,.5,1.8Z"/>
        <path id="Path_2114" data-name="Path 2114" class="cls-5" d="M16.1,17l-2.6-1.4-.1,3.3Z"/>
      </g>
    </g>
  </g>
</svg>
