<svg xmlns="http://www.w3.org/2000/svg" viewBox="0 0 60 60">
  <defs>
    <style>
      .cls-1, .cls-2 {
        fill: none;
      }

      .cls-2, .cls-3 {
        stroke: #cf3339;
      }

      .cls-2, .cls-3, .cls-4, .cls-5 {
        stroke-linecap: round;
        stroke-linejoin: round;
        stroke-miterlimit: 10;
        stroke-width: 2px;
      }

      .cls-3 {
        fill: #f08b8f;
      }

      .cls-4 {
        fill: #fff;
      }

      .cls-4, .cls-5 {
        stroke: #f08b8f;
      }

      .cls-5 {
        fill: #f4f4f4;
      }
    </style>
  </defs>
  <g id="Group_3477" data-name="Group 3477" transform="translate(-2864 -1147)">
    <g id="Symbol_347_6" data-name="Symbol 347 – 6" transform="translate(1126 -1)">
      <rect id="Rectangle_2471" data-name="Rectangle 2471" class="cls-1" width="60" height="60" transform="translate(1738 1148)"/>
    </g>
    <g id="Group_3476" data-name="Group 3476" transform="translate(2876 1159)">
      <path id="Path_2111" data-name="Path 2111" class="cls-2" d="M10.023,1h16.36V36H1V10.32Z"/>
      <path id="Path_2112" data-name="Path 2112" class="cls-3" d="M10.023,1v9.32H1Z"/>
      <line id="Line_1610" data-name="Line 1610" class="cls-4" x2="11.997" transform="translate(5.561 18.55)"/>
      <line id="Line_1611" data-name="Line 1611" class="cls-4" x2="11.997" transform="translate(5.561 24.399)"/>
      <line id="Line_1612" data-name="Line 1612" class="cls-4" x2="11.997" transform="translate(5.561 29.952)"/>
      <g id="Group_3475" data-name="Group 3475" transform="translate(22.02 9.21)">
        <rect id="Rectangle_2744" data-name="Rectangle 2744" class="cls-5" width="5.057" height="14.773" transform="translate(7.217 3.476) rotate(28.536)"/>
        <path id="Path_2113" data-name="Path 2113" class="cls-5" d="M33.863,15.15,29.5,12.77l1.19-2.181A2.479,2.479,0,0,1,34.061,9.6h0a2.479,2.479,0,0,1,.992,3.371Z" transform="translate(-22.262 -9.28)"/>
        <path id="Path_2114" data-name="Path 2114" class="cls-5" d="M26.761,28.28,22.4,25.9l-.2,5.652Z" transform="translate(-22.2 -9.421)"/>
      </g>
    </g>
  </g>
</svg>
