<svg xmlns="http://www.w3.org/2000/svg" viewBox="0 0 60 60">
  <defs>
    <style>
      .cls-1, .cls-3, .cls-4 {
        fill: none;
      }

      .cls-1 {
        stroke: #f08b8f;
        opacity: 0.997;
      }

      .cls-1, .cls-2 {
        stroke-linecap: round;
      }

      .cls-1, .cls-2, .cls-3 {
        stroke-width: 2px;
      }

      .cls-2 {
        fill: #fff;
        stroke-linejoin: round;
      }

      .cls-2, .cls-3 {
        stroke: #cf3339;
        stroke-miterlimit: 10;
      }
    </style>
  </defs>
  <g id="ico-cat-knowledge" transform="translate(-2702 -1315)">
    <g id="Group_3457" data-name="Group 3457" transform="translate(26.948 286)">
      <path id="Path_1685" data-name="Path 1685" class="cls-1" d="M-1204,1155.013v4" transform="translate(3908.701 -115.013)"/>
      <path id="Path_1686" data-name="Path 1686" class="cls-1" d="M0,0V4" transform="matrix(0.602, 0.799, -0.799, 0.602, 2721.144, 1049.044)"/>
      <path id="Path_1687" data-name="Path 1687" class="cls-1" d="M0,0V4" transform="translate(2688.393 1048.884) rotate(-47)"/>
      <path id="Path_1688" data-name="Path 1688" class="cls-1" d="M-1207.091,1190.061v-5.954l-2.948-1.03" transform="translate(3910.479 -117.998)"/>
      <path id="Path_1689" data-name="Path 1689" class="cls-1" d="M-1202.686,1191.457v-6.125l3.015-.931" transform="translate(3908.799 -119.394)"/>
      <g id="Group_2584" data-name="Group 2584" transform="translate(2693.979 1048.237)">
        <line id="Line_1197" data-name="Line 1197" class="cls-2" x2="10.091" transform="translate(5.676 27.313)"/>
        <line id="Line_1198" data-name="Line 1198" class="cls-2" x2="10.091" transform="translate(5.676 30.763)"/>
        <path id="Path_1488" data-name="Path 1488" class="cls-3" d="M21.943,11.222A10.722,10.722,0,1,0,4.789,19.8a16.6,16.6,0,0,1,.631,2.9,2.462,2.462,0,0,0,2.27,2.4h6.937a2.6,2.6,0,0,0,2.4-2.523c.126-.757.252-1.766.378-2.523A10.814,10.814,0,0,0,21.943,11.222Z" transform="translate(-0.5 -0.5)"/>
      </g>
    </g>
    <g id="Symbol_352_6" data-name="Symbol 352 – 6" transform="translate(903 -8)">
      <rect id="Rectangle_2743" data-name="Rectangle 2743" class="cls-4" width="60" height="60" transform="translate(1799 1323)"/>
    </g>
  </g>
</svg>
